<svg xmlns="http://www.w3.org/2000/svg" width="45.768" height="45.768" viewBox="0 0 45.768 45.768">
  <path id="Path_61518" data-name="Path 61518" d="M5070.56-5.584c-.945,2.659-5.176,2.4-7.828,3.489-2.559,1.048-5.091,3.01-8.028,3s-5.452-2-8-3.068c-2.643-1.11-5.811-1.554-7.8-3.558s-2.4-5.176-3.49-7.828c-1.048-2.559-3.01-5.091-3-8.029s2-5.452,3.068-8c1.108-2.643,1.553-5.811,3.558-7.8s5.175-2.4,7.827-3.489c2.559-1.048,5.091-3.011,8.028-3s5.453,2,8,3.068c2.643,1.109,5.811,1.554,7.8,3.558s2.4,5.176,3.489,7.828c1.049,2.559,3.012,5.091,3,8.028s-2,5.452-3.067,8A42.9,42.9,0,0,0,5070.56-5.584Zm-29.484-29.743c1.788-1.668,4.59-1.925,6.889-2.866,2.218-.908,4.377-2.795,6.922-2.783s4.688,1.916,6.9,2.844c2.289.961,5.141,1.19,6.862,2.927s1.925,4.59,2.866,6.888c.908,2.218,2.795,4.376,2.783,6.922s-1.916,4.688-2.844,6.9c-.961,2.291-1.189,5.142-2.926,6.863s-4.59,1.925-6.889,2.867c-2.218.908-4.377,2.795-6.922,2.783s-4.687-1.916-6.9-2.844c-2.29-.962-5.142-1.19-6.863-2.927s-1.926-4.59-2.866-6.888c-.908-2.218-2.795-4.377-2.784-6.922s1.916-4.688,2.845-6.9C5038.149-28.464,5038.686-33.1,5041.075-35.327Zm27.764,8.1c.262,2.011,2.579,3.661,2.569,5.815s-1.835,3.923-2.619,5.793c-.814,1.938-.827,4.472-2.3,5.929s-4,1.447-5.948,2.244c-1.877.768-3.662,2.578-5.816,2.569s-3.923-1.835-5.792-2.62c-1.938-.813-4.473-.826-5.93-2.3s-1.447-4-2.243-5.949c-.769-1.876-2.578-3.661-2.569-5.815s1.835-3.923,2.62-5.793c.813-1.938.826-4.472,2.295-5.929s4-1.447,5.949-2.244c1.876-.769,3.662-2.579,5.815-2.569s3.924,1.835,5.793,2.62c1.938.814,4.473.826,5.93,2.3C5066.6-33.173,5068.185-32.246,5068.839-27.224Zm-23.782,15.4c-1.191-1.2-.969-3.418-1.621-5.009-.628-1.535-2.361-2.947-2.354-4.709s1.754-3.159,2.4-4.688c.665-1.586.462-3.8,1.665-5s3.418-.969,5.01-1.621c1.535-.629,2.945-2.362,4.709-2.355s3.158,1.754,4.688,2.4c1.586.666,3.8.462,5,1.665s.97,3.418,1.621,5.01c.629,1.535,2.362,2.947,2.354,4.709s-1.753,3.159-2.4,4.688c-.666,1.586-.462,3.8-1.665,5s-3.418.969-5.01,1.621c-1.535.629-2.946,2.362-4.708,2.355s-2.356-2.494-4.688-2.4C5046.265-10.025,5045.057-11.823,5045.057-11.823Z" transform="translate(-5031.917 44.365)" fill="none" stroke="#13cca8" stroke-miterlimit="10" stroke-width="1"/>
</svg>
