<svg xmlns="http://www.w3.org/2000/svg" viewBox="0 0 1238.4 619.9"><defs><style>.ba67319d-14d9-4590-a45e-1d7d844b3315{fill:none;stroke:#fff;stroke-linecap:round;stroke-linejoin:round;stroke-width:1.5px;}</style></defs><g id="e69c56c9-6002-4f1b-b13f-bb7dd20e0eae" data-name="Layer 2"><g id="bbdae2f6-5777-490a-9f23-aafe0b8289bb" data-name="Layer 1"><path class="ba67319d-14d9-4590-a45e-1d7d844b3315" d="M99.6,619.2c0-287,232.6-519.6,519.6-519.6s519.6,232.6,519.6,519.6"/><path class="ba67319d-14d9-4590-a45e-1d7d844b3315" d="M1237.6,619.2C1237.6,277.6,960.8.8,619.2.8S.8,277.6.8,619.2"/><path class="ba67319d-14d9-4590-a45e-1d7d844b3315" d="M201.6,619.2c0-230.6,187-417.6,417.6-417.6s417.6,187,417.6,417.6"/><path class="ba67319d-14d9-4590-a45e-1d7d844b3315" d="M1138.8,619.2c0-287-232.6-519.6-519.6-519.6S99.6,332.2,99.6,619.2"/><path class="ba67319d-14d9-4590-a45e-1d7d844b3315" d="M301.5,619.2c0-175.5,142.2-317.7,317.7-317.7S936.9,443.7,936.9,619.2"/><path class="ba67319d-14d9-4590-a45e-1d7d844b3315" d="M1036.8,619.2c0-230.6-187-417.6-417.6-417.6s-417.6,187-417.6,417.6"/><path class="ba67319d-14d9-4590-a45e-1d7d844b3315" d="M619.2,301.5c-175.5,0-317.7,142.2-317.7,317.7"/></g></g></svg>