<svg xmlns="http://www.w3.org/2000/svg" width="184.328" height="140.701" viewBox="0 0 184.328 140.701">
  <g id="Group_39300" data-name="Group 39300" transform="translate(0.5 0.527)">
    <path id="Path_61606" data-name="Path 61606" d="M1671.788,1943.956l45.862,15.279,45.8-15.279,45.832,15.279,45.832-15.314V1880.7l-45.832-15.278v-30.557l-45.832-15.279-45.832,15.279v30.557l-45.832,15.278Z" transform="translate(-1671.788 -1819.588)" fill="none" stroke="#fff" stroke-miterlimit="10" stroke-width="1"/>
    <path id="Path_61607" data-name="Path 61607" d="M1855.116,1880.7v30.521l-.031.035v.018l-45.8,15.261-45.832-15.279-45.8,15.279-45.862-15.279V1880.7l45.832-15.278v-30.557l45.832-15.279,45.832,15.279v30.557Z" transform="translate(-1671.788 -1819.588)" fill="none" stroke="#fff" stroke-miterlimit="10" stroke-width="1"/>
    <line id="Line_80" data-name="Line 80" y2="32.698" transform="translate(91.664 91.67)" fill="none" stroke="#fff" stroke-miterlimit="10" stroke-width="1"/>
    <line id="Line_81" data-name="Line 81" y2="32.698" transform="translate(45.862 106.949)" fill="none" stroke="#fff" stroke-miterlimit="10" stroke-width="1"/>
    <line id="Line_82" data-name="Line 82" y2="32.698" transform="translate(137.496 106.949)" fill="none" stroke="#fff" stroke-miterlimit="10" stroke-width="1"/>
  </g>
</svg>
