<svg xmlns="http://www.w3.org/2000/svg" width="77.62" height="77.621" viewBox="0 0 77.62 77.621">
  <g id="Group_39328" data-name="Group 39328" transform="translate(-1946.619 -464.068)">
    <path id="Path_61627" data-name="Path 61627" d="M2018.612,522.036a38.355,38.355,0,1,1,5.127-19.158A38.5,38.5,0,0,1,2018.612,522.036Z" transform="translate(0 0)" fill="none" stroke="#ff4d1d" stroke-miterlimit="10" stroke-width="1"/>
    <path id="Path_61628" data-name="Path 61628" d="M2018.612,522.036a38.355,38.355,0,1,1,5.127-19.158A38.5,38.5,0,0,1,2018.612,522.036Z" transform="translate(0 0)" fill="none" stroke="#ff4d1d" stroke-miterlimit="10" stroke-width="1"/>
    <circle id="Ellipse_788" data-name="Ellipse 788" cx="25.868" cy="25.868" r="25.868" transform="translate(1948.846 502.878) rotate(-45)" fill="none" stroke="#ff4d1d" stroke-miterlimit="10" stroke-width="1"/>
    <circle id="Ellipse_789" data-name="Ellipse 789" cx="13.425" cy="13.425" r="13.425" transform="translate(1966.442 502.878) rotate(-45)" fill="none" stroke="#ff4d1d" stroke-miterlimit="10" stroke-width="1"/>
    <line id="Line_83" data-name="Line 83" x1="3.219" y1="12.012" transform="translate(1975.512 465.873)" fill="none" stroke="#ff4d1d" stroke-miterlimit="10" stroke-width="1"/>
    <line id="Line_84" data-name="Line 84" x1="8.799" y1="8.799" transform="translate(1958.339 475.789)" fill="none" stroke="#ff4d1d" stroke-miterlimit="10" stroke-width="1"/>
    <line id="Line_85" data-name="Line 85" x1="12.013" y1="3.219" transform="translate(1948.423 492.963)" fill="none" stroke="#ff4d1d" stroke-miterlimit="10" stroke-width="1"/>
    <line id="Line_86" data-name="Line 86" x1="12.013" y2="3.219" transform="translate(1948.423 509.574)" fill="none" stroke="#ff4d1d" stroke-miterlimit="10" stroke-width="1"/>
    <line id="Line_87" data-name="Line 87" x1="8.799" y2="8.799" transform="translate(1958.339 521.169)" fill="none" stroke="#ff4d1d" stroke-miterlimit="10" stroke-width="1"/>
    <line id="Line_88" data-name="Line 88" x1="3.219" y2="12.013" transform="translate(1975.512 527.87)" fill="none" stroke="#ff4d1d" stroke-miterlimit="10" stroke-width="1"/>
    <line id="Line_89" data-name="Line 89" x1="3.219" y1="12.013" transform="translate(1992.125 527.87)" fill="none" stroke="#ff4d1d" stroke-miterlimit="10" stroke-width="1"/>
    <line id="Line_90" data-name="Line 90" x1="8.799" y1="8.799" transform="translate(2003.719 521.169)" fill="none" stroke="#ff4d1d" stroke-miterlimit="10" stroke-width="1"/>
    <line id="Line_91" data-name="Line 91" x1="12.012" y1="3.219" transform="translate(2010.421 509.574)" fill="none" stroke="#ff4d1d" stroke-miterlimit="10" stroke-width="1"/>
    <line id="Line_92" data-name="Line 92" x1="12.012" y2="3.219" transform="translate(2010.421 492.963)" fill="none" stroke="#ff4d1d" stroke-miterlimit="10" stroke-width="1"/>
    <line id="Line_93" data-name="Line 93" x1="8.799" y2="8.799" transform="translate(2003.719 475.789)" fill="none" stroke="#ff4d1d" stroke-miterlimit="10" stroke-width="1"/>
    <line id="Line_94" data-name="Line 94" x1="3.219" y2="12.012" transform="translate(1992.125 465.873)" fill="none" stroke="#ff4d1d" stroke-miterlimit="10" stroke-width="1"/>
    <line id="Line_95" data-name="Line 95" y1="12.443" transform="translate(1985.429 477.01)" fill="none" stroke="#ff4d1d" stroke-miterlimit="10" stroke-width="1"/>
    <line id="Line_96" data-name="Line 96" x1="6.223" y1="10.778" transform="translate(1972.495 480.477)" fill="none" stroke="#ff4d1d" stroke-miterlimit="10" stroke-width="1"/>
    <line id="Line_97" data-name="Line 97" x1="10.778" y1="6.223" transform="translate(1963.027 489.945)" fill="none" stroke="#ff4d1d" stroke-miterlimit="10" stroke-width="1"/>
    <line id="Line_98" data-name="Line 98" x1="12.442" transform="translate(1959.561 502.879)" fill="none" stroke="#ff4d1d" stroke-miterlimit="10" stroke-width="1"/>
    <line id="Line_99" data-name="Line 99" x1="10.779" y2="6.223" transform="translate(1963.027 509.59)" fill="none" stroke="#ff4d1d" stroke-miterlimit="10" stroke-width="1"/>
    <line id="Line_100" data-name="Line 100" x1="6.223" y2="10.778" transform="translate(1972.495 514.503)" fill="none" stroke="#ff4d1d" stroke-miterlimit="10" stroke-width="1"/>
    <line id="Line_101" data-name="Line 101" y1="12.443" transform="translate(1985.429 516.304)" fill="none" stroke="#ff4d1d" stroke-miterlimit="10" stroke-width="1"/>
    <line id="Line_102" data-name="Line 102" x1="6.223" y1="10.778" transform="translate(1992.141 514.503)" fill="none" stroke="#ff4d1d" stroke-miterlimit="10" stroke-width="1"/>
    <line id="Line_103" data-name="Line 103" x1="10.779" y1="6.223" transform="translate(1997.052 509.59)" fill="none" stroke="#ff4d1d" stroke-miterlimit="10" stroke-width="1"/>
    <line id="Line_104" data-name="Line 104" x1="12.442" transform="translate(1998.854 502.879)" fill="none" stroke="#ff4d1d" stroke-miterlimit="10" stroke-width="1"/>
    <line id="Line_105" data-name="Line 105" x1="10.778" y2="6.223" transform="translate(1997.053 489.945)" fill="none" stroke="#ff4d1d" stroke-miterlimit="10" stroke-width="1"/>
    <line id="Line_106" data-name="Line 106" x1="6.223" y2="10.778" transform="translate(1992.141 480.477)" fill="none" stroke="#ff4d1d" stroke-miterlimit="10" stroke-width="1"/>
  </g>
</svg>
