<svg xmlns="http://www.w3.org/2000/svg" xmlns:xlink="http://www.w3.org/1999/xlink" width="1920" height="915" viewBox="0 0 1920 915">
  <defs>
    <clipPath id="clip-path">
      <rect id="Rectangle_4055" data-name="Rectangle 4055" width="1920" height="915" transform="translate(-1979.474 -22040)" fill="#fff"/>
    </clipPath>
  </defs>
  <g id="Mask_Group_2" data-name="Mask Group 2" transform="translate(1979.474 22040)" clip-path="url(#clip-path)">
    <rect id="Rectangle_4006" data-name="Rectangle 4006" width="2302" height="1058" transform="translate(-2191.474 -22112)" fill="#002bff"/>
    <g id="Group_39298" data-name="Group 39298" transform="translate(-2540.781 -21861.879)">
      <path id="Path_61598" data-name="Path 61598" d="M3257.93,2656.63l74.5,24.818,74.4-24.818,74.449,24.818v49.636l74.5,24.819,74.4-24.819,74.449,24.819,74.4-24.79v-49.665l74.5-24.818,74.451,24.818,74.4-24.79V2522.224l-21.753-7.256,21.736-7.261V2373.315l-74.383-24.818V2298.86l-74.449-24.818-74.449,24.818-74.45-24.818v-49.637l-74.449-24.818-74.45,24.818v49.637l-74.449,24.818-74.451-24.818-74.45,24.818V2348.5l-74.449,24.818-.016,134.392,21.785,7.261-21.769,7.256Z" transform="translate(-3257.914 -2199.588)" fill="none" stroke="#fff" stroke-miterlimit="10" stroke-width="1"/>
      <path id="Path_61599" data-name="Path 61599" d="M3913.5,2537.384v49.58l-.05.057v.029l-74.4,24.79-74.45-24.818-74.4,24.818-74.5-24.818v-49.636l74.449-24.818V2462.93l74.449-24.818,74.45,24.818v49.636Z" transform="translate(-3392.337 -2289.203)" fill="none" stroke="#fff" stroke-miterlimit="10" stroke-width="1"/>
      <path id="Path_61600" data-name="Path 61600" d="M3913.5,2298.86v49.579l-.05.058v.028l-74.4,24.79L3764.6,2348.5l-74.4,24.818-74.5-24.818V2298.86l74.449-24.818v-49.637l74.449-24.818,74.449,24.818v49.637Z" transform="translate(-3392.337 -2199.588)" fill="none" stroke="#fff" stroke-miterlimit="10" stroke-width="1"/>
      <path id="Path_61601" data-name="Path 61601" d="M3913.5,2775.908v49.578l-.05.057v.029l-74.4,24.789-74.45-24.818-74.4,24.818-74.5-24.818v-49.636l74.449-24.819v-49.636l74.449-24.818,74.45,24.818v49.636Z" transform="translate(-3392.337 -2378.817)" fill="none" stroke="#fff" stroke-miterlimit="10" stroke-width="1"/>
      <path id="Path_61602" data-name="Path 61602" d="M4271.261,2656.646v49.579l-.05.057v.029l-74.4,24.789-74.45-24.818-74.4,24.818-74.5-24.818v-49.636l74.45-24.818v-49.637l74.449-24.818,74.45,24.818v49.637Z" transform="translate(-3526.75 -2334.01)" fill="none" stroke="#fff" stroke-miterlimit="10" stroke-width="1"/>
      <path id="Path_61603" data-name="Path 61603" d="M4271.26,2418.123V2467.7l-.049.057v.029l-74.4,24.789-74.45-24.818-74.4,24.818-74.5-24.818v-49.636l74.449-24.818v-49.637l74.449-24.818,74.45,24.818V2393.3Z" transform="translate(-3526.75 -2244.396)" fill="none" stroke="#fff" stroke-miterlimit="10" stroke-width="1"/>
      <path id="Path_61604" data-name="Path 61604" d="M3555.736,2656.646v49.579l-.049.057v.029l-74.4,24.789-74.449-24.818-74.4,24.818-74.5-24.818v-49.636l74.449-24.818v-49.637l74.45-24.818,74.449,24.818v49.637Z" transform="translate(-3257.923 -2334.01)" fill="none" stroke="#fff" stroke-miterlimit="10" stroke-width="1"/>
      <path id="Path_61605" data-name="Path 61605" d="M3555.736,2418.123V2467.7l-.049.057v.029l-74.4,24.789-74.449-24.818-74.4,24.818-74.5-24.818v-49.636l74.449-24.818v-49.637l74.45-24.818,74.449,24.818V2393.3Z" transform="translate(-3257.923 -2244.396)" fill="none" stroke="#fff" stroke-miterlimit="10" stroke-width="1"/>
      <line id="Line_78" data-name="Line 78" y2="84.77" transform="translate(223.366 446.726)" fill="none" stroke="#fff" stroke-miterlimit="10" stroke-width="1"/>
      <line id="Line_79" data-name="Line 79" y2="84.857" transform="translate(521.163 446.669)" fill="none" stroke="#fff" stroke-miterlimit="10" stroke-width="1"/>
    </g>
    <g id="Group_39299" data-name="Group 39299" transform="translate(-541.729 -21860.691)">
      <path id="Path_61598-2" data-name="Path 61598" d="M3257.93,2656.63l74.5,24.818,74.4-24.818,74.449,24.818v49.636l74.5,24.819,74.4-24.819,74.449,24.819,74.4-24.79v-49.665l74.5-24.818,74.451,24.818,74.4-24.79V2522.224l-21.753-7.256,21.736-7.261V2373.315l-74.383-24.818V2298.86l-74.449-24.818-74.449,24.818-74.45-24.818v-49.637l-74.449-24.818-74.45,24.818v49.637l-74.449,24.818-74.451-24.818-74.45,24.818V2348.5l-74.449,24.818-.016,134.392,21.785,7.261-21.769,7.256Z" transform="translate(-3257.914 -2199.588)" fill="none" stroke="#fff" stroke-miterlimit="10" stroke-width="1"/>
      <path id="Path_61599-2" data-name="Path 61599" d="M3913.5,2537.384v49.58l-.05.057v.029l-74.4,24.79-74.45-24.818-74.4,24.818-74.5-24.818v-49.636l74.449-24.818V2462.93l74.449-24.818,74.45,24.818v49.636Z" transform="translate(-3392.337 -2289.203)" fill="none" stroke="#fff" stroke-miterlimit="10" stroke-width="1"/>
      <path id="Path_61600-2" data-name="Path 61600" d="M3913.5,2298.86v49.579l-.05.058v.028l-74.4,24.79L3764.6,2348.5l-74.4,24.818-74.5-24.818V2298.86l74.449-24.818v-49.637l74.449-24.818,74.449,24.818v49.637Z" transform="translate(-3392.337 -2199.588)" fill="none" stroke="#fff" stroke-miterlimit="10" stroke-width="1"/>
      <path id="Path_61601-2" data-name="Path 61601" d="M3913.5,2775.908v49.578l-.05.057v.029l-74.4,24.789-74.45-24.818-74.4,24.818-74.5-24.818v-49.636l74.449-24.819v-49.636l74.449-24.818,74.45,24.818v49.636Z" transform="translate(-3392.337 -2378.817)" fill="none" stroke="#fff" stroke-miterlimit="10" stroke-width="1"/>
      <path id="Path_61602-2" data-name="Path 61602" d="M4271.261,2656.646v49.579l-.05.057v.029l-74.4,24.789-74.45-24.818-74.4,24.818-74.5-24.818v-49.636l74.45-24.818v-49.637l74.449-24.818,74.45,24.818v49.637Z" transform="translate(-3526.75 -2334.01)" fill="none" stroke="#fff" stroke-miterlimit="10" stroke-width="1"/>
      <path id="Path_61603-2" data-name="Path 61603" d="M4271.26,2418.123V2467.7l-.049.057v.029l-74.4,24.789-74.45-24.818-74.4,24.818-74.5-24.818v-49.636l74.449-24.818v-49.637l74.449-24.818,74.45,24.818V2393.3Z" transform="translate(-3526.75 -2244.396)" fill="none" stroke="#fff" stroke-miterlimit="10" stroke-width="1"/>
      <path id="Path_61604-2" data-name="Path 61604" d="M3555.736,2656.646v49.579l-.049.057v.029l-74.4,24.789-74.449-24.818-74.4,24.818-74.5-24.818v-49.636l74.449-24.818v-49.637l74.45-24.818,74.449,24.818v49.637Z" transform="translate(-3257.923 -2334.01)" fill="none" stroke="#fff" stroke-miterlimit="10" stroke-width="1"/>
      <path id="Path_61605-2" data-name="Path 61605" d="M3555.736,2418.123V2467.7l-.049.057v.029l-74.4,24.789-74.449-24.818-74.4,24.818-74.5-24.818v-49.636l74.449-24.818v-49.637l74.45-24.818,74.449,24.818V2393.3Z" transform="translate(-3257.923 -2244.396)" fill="none" stroke="#fff" stroke-miterlimit="10" stroke-width="1"/>
      <line id="Line_78-2" data-name="Line 78" y2="84.77" transform="translate(223.366 446.726)" fill="none" stroke="#fff" stroke-miterlimit="10" stroke-width="1"/>
      <line id="Line_79-2" data-name="Line 79" y2="84.857" transform="translate(521.163 446.669)" fill="none" stroke="#fff" stroke-miterlimit="10" stroke-width="1"/>
    </g>
  </g>
</svg>
