<svg xmlns="http://www.w3.org/2000/svg" width="58.11" height="58.11" viewBox="0 0 58.11 58.11">
  <g id="Full_Color_Mark_RGB_" data-name="Full Color Mark (RGB)" transform="translate(0)">
    <g id="Group_39186" data-name="Group 39186" transform="translate(0 0)">
      <path id="Path_61548" data-name="Path 61548" d="M945.493-1319.92v21.23l-8.365-19.513-2.953,1.266,8.16,19.036-14.645-14.645-2.272,2.272,15.013,15.013-19.713-7.883-1.193,2.983,19.23,7.69h-20.71v3.213h21.23l-19.513,8.365,1.266,2.953,19.036-8.16-14.645,14.645,2.272,2.272L942.7-1284.2l-7.883,19.712,2.983,1.193,7.69-19.231v20.711h3.213v-21.231l8.365,19.513,2.953-1.266-8.16-19.036,14.645,14.645,2.272-2.272-15.011-15.011,19.712,7.883,1.193-2.983-19.23-7.69h20.711v-3.213h-21.23l19.513-8.365-1.266-2.953-19.036,8.16,14.645-14.645-2.272-2.272L951.5-1297.534l7.883-19.712-2.983-1.193-7.69,19.23v-20.711Z" transform="translate(-918.044 1319.92)" fill="#fff"/>
    </g>
  </g>
</svg>
