<svg xmlns="http://www.w3.org/2000/svg" width="184" height="20.878" viewBox="0 0 184 20.878"><defs><style>.a{fill:#002bff;}.b{fill:#fff;}</style></defs><g transform="translate(-5349 459)"><path class="a" d="M1282.316-82.431l-7.292,20.265h3.245l5.739-16.584h.158l5.729,16.584h3.246l-7.293-20.265Z" transform="translate(4098.273 -376.292)"/><path class="a" d="M1399.684-72.683a7.952,7.952,0,0,0-1.89-1.068,15.07,15.07,0,0,0-1.989-.643l-1.979-.515a12.707,12.707,0,0,1-1.237-.38,6.225,6.225,0,0,1-1.2-.585,2.888,2.888,0,0,1-.9-.875,2.234,2.234,0,0,1-.342-1.247,2.524,2.524,0,0,1,.5-1.539,3.329,3.329,0,0,1,1.41-1.068,5.443,5.443,0,0,1,2.157-.391,5.043,5.043,0,0,1,2.889.777,2.906,2.906,0,0,1,1.306,2.182h2.948a5.037,5.037,0,0,0-.95-2.894,6.14,6.14,0,0,0-2.488-1.984,8.646,8.646,0,0,0-3.636-.723,8.85,8.85,0,0,0-3.661.728,6.276,6.276,0,0,0-2.573,2.033,5.059,5.059,0,0,0-.95,3.057,4.369,4.369,0,0,0,1.42,3.4,9.275,9.275,0,0,0,3.854,1.949l2.395.653a13.7,13.7,0,0,1,1.954.662,3.877,3.877,0,0,1,1.376.95,2.14,2.14,0,0,1,.509,1.474,2.7,2.7,0,0,1-.584,1.727,3.8,3.8,0,0,1-1.6,1.148,6.111,6.111,0,0,1-2.311.411,6.4,6.4,0,0,1-2.162-.351,3.752,3.752,0,0,1-1.613-1.079,3.1,3.1,0,0,1-.718-1.826h-3.067a5.909,5.909,0,0,0,1.039,3.162,6.052,6.052,0,0,0,2.6,2.053,9.838,9.838,0,0,0,3.938.722,9.648,9.648,0,0,0,4.052-.772,5.976,5.976,0,0,0,2.563-2.108,5.408,5.408,0,0,0,.886-3.057,4.792,4.792,0,0,0-.539-2.345,5.182,5.182,0,0,0-1.41-1.642" transform="translate(4012.393 -375.363)"/><path class="a" d="M1487.887-79.8h6.313v17.633h3.048V-79.8h6.322v-2.632h-15.683Z" transform="translate(3934.364 -376.291)"/><path class="a" d="M1598.387-71h8.984v-2.622h-8.984V-79.8h9.647V-82.43h-12.7v20.264h12.824V-64.8h-9.766Z" transform="translate(3851.63 -376.292)"/><path class="a" d="M1703.745-70.616a5.285,5.285,0,0,0,2.335-2.192,6.67,6.67,0,0,0,.777-3.27,6.843,6.843,0,0,0-.772-3.3,5.4,5.4,0,0,0-2.33-2.24,8.418,8.418,0,0,0-3.914-.812h-7.223v20.264h3.057v-7.669h4.156c.067,0,.13,0,.2,0l4.119,7.673h3.482l-4.486-8.193a6,6,0,0,0,.6-.258m-8.069-9.192h3.839a5.676,5.676,0,0,1,2.45.45,2.935,2.935,0,0,1,1.375,1.291,4.235,4.235,0,0,1,.44,1.989,4.074,4.074,0,0,1-.435,1.949,2.818,2.818,0,0,1-1.37,1.237,5.877,5.877,0,0,1-2.419.426h-3.879Z" transform="translate(3776.715 -376.292)"/><path class="a" d="M1806.112-70.616a5.286,5.286,0,0,0,2.335-2.192,6.667,6.667,0,0,0,.777-3.27,6.846,6.846,0,0,0-.771-3.3,5.4,5.4,0,0,0-2.33-2.24,8.418,8.418,0,0,0-3.914-.812h-7.223v20.264h3.057v-7.669h4.156c.067,0,.13,0,.2,0l4.119,7.673H1810l-4.486-8.193a6.065,6.065,0,0,0,.6-.258m-8.069-9.192h3.839a5.676,5.676,0,0,1,2.45.45,2.935,2.935,0,0,1,1.375,1.291,4.232,4.232,0,0,1,.44,1.989,4.076,4.076,0,0,1-.435,1.949,2.819,2.819,0,0,1-1.371,1.237,5.877,5.877,0,0,1-2.419.426h-3.879Z" transform="translate(3697.889 -376.292)"/><path class="a" d="M1901.505-82.431h-3.532l-7.292,20.265h3.246l5.739-16.584h.158l5.729,16.584h3.245Z" transform="translate(3624.202 -376.292)"/><path class="b" d="M1189.655-72.827h-7.411l6.811-2.92-.441-1.031-6.644,2.848,5.111-5.111-.793-.793-5.24,5.24,2.752-6.881-1.041-.416-2.684,6.712v-7.229h-1.121V-75l-2.919-6.81-1.031.441,2.848,6.645-5.112-5.112-.792.793,5.24,5.24-6.881-2.752-.417,1.041,6.713,2.684h-7.229v1.122h7.409l-6.81,2.92.441,1.031,6.645-2.848-5.112,5.112.792.793,5.24-5.24-2.752,6.881,1.041.416,2.684-6.712v7.229h1.121v-7.41l2.919,6.81,1.031-.442-2.848-6.644,5.112,5.112.793-.793-5.24-5.24,6.88,2.752.417-1.041-6.712-2.684h7.229Z" transform="translate(4179.628 -376.309)"/></g></svg>