<svg xmlns="http://www.w3.org/2000/svg" viewBox="0 0 125.3 95.2"><defs><style>.aaee4464-4163-42ab-a2c7-3b6fb60e1a11{fill:#9b794e;}.edcf8cbb-f127-45f5-9822-1267736aaa32{fill:#fff;}</style></defs><g id="e0f4c065-1fcf-4b29-be55-a315223bce1c" data-name="Layer 2"><g id="f4e944fa-2018-4475-9c54-7348de62730c" data-name="Layer 1"><g id="e637f093-fec8-477c-8e8d-335f7b591ab2" data-name="vssl-flag-texture-logo"><path class="aaee4464-4163-42ab-a2c7-3b6fb60e1a11" d="M7.4,88.2a.2.2,0,0,0-.2-.2.3.3,0,0,1-.1-.2H7c-.1,0-.1.3.1.5h.3"/><path class="aaee4464-4163-42ab-a2c7-3b6fb60e1a11" d="M.7,94.5H1c.3.2.5.1.3-.1a.5.5,0,0,0-.6-.1H.4c-.1-.1-.4.1-.4.2s.1.2.2.3.1.2.1.3L.6,95c0-.4,0-.4.1-.5"/><path class="aaee4464-4163-42ab-a2c7-3b6fb60e1a11" d="M7.9,90.2l.3-.3c.2.1.3-.1.3-.2a.2.2,0,0,0-.2-.2.4.4,0,0,1-.1-.3.5.5,0,0,0-.2-.4l-.3.2c-.3.3-.3.4-.1.5s.1.1.1.3-.1.4-.2.6,0,.4-.1.5l.4-.3H7.7l.2-.4"/><path class="aaee4464-4163-42ab-a2c7-3b6fb60e1a11" d="M4.2,92.2c0-.1,0-.1-.1-.1l-.2-.2c-.1-.1-.2-.1-.2,0l.2.3h.3"/><path class="aaee4464-4163-42ab-a2c7-3b6fb60e1a11" d="M9.8,88.2H9.1l.2-.3a.6.6,0,0,0,0-.9c-.3-.3-.4-.3-.6,0a.2.2,0,0,0,0,.3c.1.3-.1.3-.4.1H8c-.2.2-.2.2.1.4a.3.3,0,0,1,.1.2v.3c0,.2.1.3.2.3s.2.1.2.3.1.2.2.1.2-.3.6-.2.2,0,.2-.1h.3c.2,0,.3-.1.2-.3H9.8M9,87.8c-.1.2-.2.2-.2,0H9"/><path class="aaee4464-4163-42ab-a2c7-3b6fb60e1a11" d="M8.5,86.7c.4,0,.5-.1.4-.3h0l-.6.4h.2"/><path class="aaee4464-4163-42ab-a2c7-3b6fb60e1a11" d="M16.7,84.5h-.1c0,.1,0,.2.1.1h0"/><path class="aaee4464-4163-42ab-a2c7-3b6fb60e1a11" d="M21.1,85.4c-.1,0,0,.2.2.2h.1a.2.2,0,0,0-.3-.1"/><path class="aaee4464-4163-42ab-a2c7-3b6fb60e1a11" d="M2.6,91.3c.2.1.3-.1.2-.3s-.1-.1-.1-.2l-.4.4h.3"/><path class="aaee4464-4163-42ab-a2c7-3b6fb60e1a11" d="M10.7,88.8c.1-.1.1-.1-.1-.1s-.1,0,0,.1.1.1.1,0"/><path class="aaee4464-4163-42ab-a2c7-3b6fb60e1a11" d="M15.6,87.9a.1.1,0,0,0,.1-.1h.7c-.1-.2-.2-.2-.7-.1h-.4c0,.1,0,.2.1.2h.2"/><path class="aaee4464-4163-42ab-a2c7-3b6fb60e1a11" d="M125.3,11.3c0-.1-.1-.2,0-.2h0l-.3.2h-.2c-.1,0-.1-.1-.1-.3s-.2-.2-.1-.3h0a3.3,3.3,0,0,0-.3-.6.3.3,0,0,0,.1.2c-.1,0-.4-.1-.4-.2h-.1c-.3,0-.7-.2-1,0l-.7.3h-.1l-.5.7-.3.3c-.2.1-.3.2-.4.1h-.4c-.3-.3-.7-.2-1-.2l-.2-.2h0c0,.1,0,0-.2,0s0,.1-.2,0h-.1l-.7.2c-.2.1-.2.4-.3.8v.4a1.1,1.1,0,0,1-.9.7h-1.3a2.5,2.5,0,0,1-1.2-1.6,9.3,9.3,0,0,0-.5-1h0c-.1,0-.1-.2-.1-.2h.1c0-.2-.2-.3-.2-.4l-.3-.5-.9-1.4a2.4,2.4,0,0,0-1-1h-.1V7.3h0l-.5-.2a1.5,1.5,0,0,0-1.1.4,1.2,1.2,0,0,0-.4,1.1c0,.1-.2.3-.2.5s-.1.5-.1.7a2.8,2.8,0,0,1-.1,1.3,1.4,1.4,0,0,1-.7.8h-.1a3.1,3.1,0,0,1-1.9.2,2.9,2.9,0,0,1-1.6-.4,4.8,4.8,0,0,1-.9-1.1,5.4,5.4,0,0,0-1.2-.9,3.9,3.9,0,0,0-1.4-.8,4.5,4.5,0,0,0-2.3,0,4.6,4.6,0,0,0-1.4.7h.1c.2.1.2.2.1.3l-.3-.3-.7.7-.5.6a2.5,2.5,0,0,0,.2,1.2,12.1,12.1,0,0,0,.5,1.4,2.8,2.8,0,0,1,.1,1.3,1.2,1.2,0,0,1-.4.8,3.7,3.7,0,0,1-1.3,1.2,5.3,5.3,0,0,1-2.3.6,8.6,8.6,0,0,1-1.6-.1,5.5,5.5,0,0,1-1.8-.1,8.1,8.1,0,0,1-2.7-1.1h.1l-.4-.3L83.9,14A11.8,11.8,0,0,0,81,12.4l-2.1-.9a36.2,36.2,0,0,0-5.6-1.7l-4.1-.4a23,23,0,0,0-2.6-.3H61.9l-4.8.5-3.6.3-2.7.3c-.3,0-.6.3-.8.3A33.5,33.5,0,0,1,35,1.1c-1.5,8.7-2.9,17.5-4.4,26.1.6-4.4,1-9.4,1.8-15.6a.3.3,0,0,1-.3.3c-.2-.1-.3-.1-.3-.4s-.1-.2-.1-.1h.1c-.1-.2-.2-.3-.1-.4s.4-.3.5-.3l.4.4c.4-3,1-6.4,1.5-10.1C34.3-.1,32-.4,31.7.6c-5.5,28-7.1,36.4-9.5,52.8h0c.1,0,.2.3.1.2s-.2,0-.2-.1a.1.1,0,0,0,.1-.1v.7c.1.1,0,.4-.1.8s0,.1,0,.1l-.3,1.3c.2-.1.1,0,.2.1h.3a.7.7,0,0,1,.5.4c0,.1-.4,0-.5-.1h-.3c-.1,0-.1.1-.2,0s-.1.8-.1,1.1l.2-.2c.3-.3.6-.4.8-.1a.6.6,0,0,1-.2.8.5.5,0,0,1-.8-.1l-.2-.3-.3,2.5h0c-.2,1.3-.2,2.7-.4,4.1l.3.3-.2.2-.3-.2a1.4,1.4,0,0,1-.2.6.4.4,0,0,1,.1.3v.2a9.1,9.1,0,0,0-.1,1.7h.1c.3.1.4.1.3.4a.2.2,0,0,1-.4.1h-.1a7.7,7.7,0,0,1-.2,1.5c.1,0,0-.1,0-.2l.5-.2c.1,0,.1-.2.2-.4s.1-.2.2-.2.3,0,.3.2h-.2v.2c-.1.2.1.3.3.3s.1,0,0,.2v.2h-.2c-.2,0-.4-.1-.4,0s-.6,0-.6-.1,0,.4,0,.6-.1-.1,0-.1h.4c.1,0,.3.6.2.8s-.1.3-.4.3h-.4c-.1.3-.3.5-.3.8s.1-.1.1-.2.3-.1.5,0l.4.2c.1,0,.3-.2.4-.1s.2.1.2.3v.3a1.1,1.1,0,0,0-.8.2c-.3.2-.6.2-.7-.2a.9.9,0,0,1-.1.5h0c.1.1.3.3.2.4h-.3v.6h0c.4-.2.5-.1.2.1l-.2.3h-.1v.4c.2-.1.3.1.3.3s-.2.4-.4.3.1.3,0,.4,0,.1,0,.1v.4c.2-.1.4.1.5.3s.1.2-.2.3l-.5.3c-.1.1,0,.3.1.4l.3.2c.1-.1.4.3.4.4h-.4c-.2-.2-.1-.2-.1,0h-.5l-.3,2.5c-.1.2,0,.3.1.4s.2.1.3.1.5.1.6.5.1.4,0,.4l-.2.2c-.1.2-.3.3-.3.4s-.2.2-.2.4v.3c-.1.1,0,.3,0,.3s.1.1.1.2-.1.2-.2.1l-.3-.2h-.3c-.2-.2-.5-.1-.5,0s.1.2,0,.2-.6-.5-.6-.6a.2.2,0,0,0-.1-.3c-.2-.1-.2,0,.1-.1l.3-.2a.5.5,0,0,0,.4-.3l.2-.4c.1,0,.4-.1.4-.3s0-.2-.1-.3h-.3c0,.2,0,.2-.2.2s-.1,0-.1.3a.5.5,0,0,1-.7.5h-.4c-.1.2-.2.2-.2,0l-.3-.2-.2-.2-1.3.6c.1.2.1.2,0,.3l-.3.2c-.1.1-.3-.1-.3-.2l-.7.6h-.1c.1.1.2-.1.5-.2s.5,0,.4.3,0,.3-.3.3h-.3c-.1,0-.2,0-.2-.3h-.2l-.4.2-.2.2c-.1.1-.1.2-.1.4s0,.2-.3.2-.4,0-.5.2h0c-.1,0-.2.2-.3.3h-.3c-.1,0,0,0-.1-.1h0l-.7.4c.2,0,.3,0,.3.2s.4.3.6,0h.4c0-.1.4,0,.3.1a.2.2,0,0,1-.2.2h-.3c-.1.2-.2.2-.1.4s.3.3.4.4.3.1.2.4a.4.4,0,0,1-.1.3c.2,0,.1.2-.2.3s-.4.2-.4.3.2.3.3.2.2-.3.4-.2h.3c.1-.1,0-.1,0-.3s.1-.4.5-.3.5.1.4.4,0,.4.2.2.5-.2.6,0h.1c.1,0,.1-.1.2-.2h.1a.4.4,0,0,0-.1-.3c-.2,0-.1,0,0-.2s0-.3-.1-.6,0-.3,0-.3h.1a.7.7,0,0,0,.5.4h.1c0,.1.6.2.7.1s.1-.2.1-.4l.2-.3c.1-.1.1-.1.1-.3s0-.1-.1-.2-.3-.1-.3-.2l.3.2h.3c.1,0-.1,0,0,.1H16c.2.1.2.3.4.6s.2.4.3.4.3.2.2.4a.1.1,0,0,1-.1.1h.5v-.2h1.1v-.3c.1-.1.1.1.2.2h.7l.2-.2c0-.1-.1-.2,0-.2l.6-.2c0-.1,0-.2-.1-.2s0-.6.3-.3.1.2.1.4,0,.2-.2.2-.3.1-.1.2h.6l2.6-.2c.1-.1.1-.2.2-.2h.8v0h.4a.3.3,0,0,1,.1-.5h.4c.2-.2.2-.2.2.1a.7.7,0,0,1-.1.5h2.4l.9-.2H31c0-.1.1-.1.1-.2s0-.3.4-.6.4-.4.6-.2v.2c-.2.1-.1.1-.1.3a.5.5,0,0,1-.2.4h.7a.4.4,0,0,1-.1-.3c.1-.1,0-.1,0-.1l.2.2h1.2l-.2-.2c-.2-.2-.1-.4,0-.4s.7.4.5.6c5.3-.3,9.6-.4,13.6-.4l.2-.2c.1,0,.1.2.1.3h3.2v-.2c.2-.1.3,0,.3.1,10.4.3,19.7,1.3,40.4,1.3,7.3.1-6.6-2.6-13.7-3.2-14.1-1.1-21.2-2-28.3-2.7,0,.2-.1.1-.2,0v-.2l-4.2-.2c-.1.1-.3.2-.3,0h-.6c0,.2-.5.4-.5.3s-.1-.3,0-.5H40.3a.3.3,0,0,1-.1.2c-.2.1-.3,0-.4,0s-.1-.1-.1-.2l-4.1-.2s0,.2-.1.2l-.2-.2-.9.2c.1.1.2.2.1.3s-.1,0-.1-.1h-.2c0-.1-.1-.1-.1-.2H29.6c.1,0,0,.1,0,.2h-.2s-.1-.1,0-.1,0-.2.1-.2l-.5.2c.1.1,0,.3-.2.4s-.1.2-.1.4.1.2,0,.2-.2-.1-.1-.2-.1-.1-.2-.2-.2-.4,0-.7v.2H27l-.3.2a1.6,1.6,0,0,1-1-.1h-.2l-.9.2a.2.2,0,0,1-.3,0l-.7-.2v.2c-.1.1-.1.1-.3,0h0l-1.5.2a.1.1,0,0,0-.1-.1c0,.1.2.2.3.4a.2.2,0,0,1,0,.3c-.2.1-.4.1-.5-.1s-.2,0-.3,0-.7,0-.8-.3-.2-.4-.1-.6a.2.2,0,0,1,.2-.2h0v-.4c-.2,0-.1-.1.1-.1h.1c.1-.3.1-.6.2-.9a.6.6,0,0,1-.1-.6.4.4,0,0,1,.3-.2,1.7,1.7,0,0,0,.1-.7q-.1.3-.6,0c-.2-.2-.2,0-.1-.8s0-.6.1-.6a.4.4,0,0,0,.1.3c0,.1.1,0,.3,0s.2-.1.3.2h.2c.2-.7.2-1.4.4-2.1h.2l.3-1.9c-.2,0-.2,0-.2.2s-.2.2-.4.3h-.4a.3.3,0,0,1-.1-.2c.1-.1.2,0,.3.1s.4-.3.4-.6.2-.3.6-.3a3.2,3.2,0,0,1,.3-.9h-.1c-.4.1-.7-.2-.4-.4s.1-.1.2.1h.2s-.1-.1,0-.1.2-.5.2-.8-.1-.2.1-.2a.3.3,0,0,0,.1-.2h.1a2.7,2.7,0,0,1,0-.9,4.5,4.5,0,0,1-.7-.7.1.1,0,0,1,.1-.1.4.4,0,0,0,.1-.3l.2-.4c.2-.1.3,0,.4.1s0,.4-.2.4h-.3c0,.1.4.4.6.4l.3-.9h0c.1-.3.1-.7.2-1h-.1c-.1-.1-.1-.6,0-.6l.3.4a2.9,2.9,0,0,1,.2-.9h-.2c.1-.5.4-.9.5-1.3h-.1c-.1-.1-.1-.1,0-.2h.2c.1-.6.1-1.2.2-1.8s.1-.1,0-.1-.2.2-.2.2-.2-.1,0-.3l.2-.3c0-.1.1-.1.2,0s.1-.2.1-.3h-.2l.2-.2h0c.3-1.4.7-2.8,1-4s-.2-.2-.2-.2-.2-.1,0-.2h.2c.2-.8.3-1.6.5-2.4a.1.1,0,0,1-.1.1.5.5,0,0,1-.7,0c0-.2-.1-.1.1-.4a.3.3,0,0,1,.1-.2c0-.1.1-.2.1-.4s-.1-.3,0-.5.3-.4.6-.3h.2c.1-.5.1-1.1.2-1.6h0c.3-1.4.6-2.6.8-3.9s-.2,0-.2-.1-.2,0,0-.2,0-.3.1-.3.4-1.3.5-2h0c-.1.1-.2,0-.2-.1h.2c.1-.8.3-1.6.4-2.3l.6.2v-.2c0-.2.1-.2.2-.2l.8-.6c.8-.5.8-.5,1.1-.1a1.2,1.2,0,0,1,0,1.3,1.8,1.8,0,0,0-.1.5l1.6.6h-.1a.2.2,0,0,1,.2-.2c.1,0,.1.1.1.2h0c1,.2,1.9.5,2.9.6h-.1s.1-.2.2-.2v.2h.1a20.4,20.4,0,0,0,5.5-.2c0-.1,0-.2.1-.2h0c.1-.1.2.1.2.2l3.3-.7h0c.3-.3.4-.4.5-.1C56.5,39.8,67.2,32.8,77.7,32l.5.2,2.9.5,2.8.7,2.9.5,2.6.5a8.5,8.5,0,0,0,1.6,0h1.3a24.3,24.3,0,0,0,2.7,0h.9a14.1,14.1,0,0,0,2.2-.6l2.6-.9a10.4,10.4,0,0,0,2-.8l1.9-1h.1l.7-.2,1.3-.2h1.8a1.3,1.3,0,0,1,1,.4l.8.7a.1.1,0,0,1,.1.1l.7.4.7.4h.3a4.7,4.7,0,0,0,1.6-.2,2.5,2.5,0,0,0,1.6-.6c.2-.2.3-.4.5-.5a2.4,2.4,0,0,0,.9-1.5v-.4c0-.2.2-.2.3-.3a1.8,1.8,0,0,1,.7-.5.2.2,0,0,1,.2.2l.6.3a2,2,0,0,0,.8.4l.9-.2a1.1,1.1,0,0,0,.8-.3l.7-.8c.2-.2.5-.2.8-.3s.2-.2.4-.2a1.6,1.6,0,0,0,.8-.6v-.3c0-.1,0-.3-.1-.3a.2.2,0,0,0-.2.2l-.3.4c-.2.3-.4.2-.6.1s-.3,0-.5,0a.9.9,0,0,0-.7.3l-.9.3c-.3.1-.5.3-.7.2s-.6-.4-.8-.8-.3-.3-.5-.5l-.9-.5h-1.4l-.9.3c-.2.2-.5.4-.5.7s.1.7.1,1.1,0,.2,0,.3v.4c0,.1,0,.1-.1.1a2.6,2.6,0,0,1-.9.5l-.8.2a1.9,1.9,0,0,1-1.3-.7l-.7-.5-.6-.9c-.1-.4-.5-.7-.6-1.1a2.4,2.4,0,0,0-1.3-1.3l-1.4-.4h-1.4a3.4,3.4,0,0,0-1.4.2l-1.2.5-.8.5a11,11,0,0,1-1.4.9l-1.8.7a3.5,3.5,0,0,1-1.1.3H96.4a16.3,16.3,0,0,1-3.8.1,10.1,10.1,0,0,1-1.7-.3l-2.8-.3-2.2-.8-1.7-.7-1.6-.7-1.9-1.3a40.5,40.5,0,0,1,4.9-.4h.1l1.9.7h1.9l2.3.2h1.1a13.8,13.8,0,0,1,2.7.8l-1.2-1.1.4-.2,2.2-.8a5.7,5.7,0,0,0,1.8-1.2,10.5,10.5,0,0,0,.8-1.1c.1,0,.2,0,.2-.1a6.4,6.4,0,0,0,.2-.7,2.2,2.2,0,0,0,.4-1.3c0-.1-.1-.2-.1-.3s0,0,0-.1h.1v-.2a.1.1,0,0,1-.1-.1c0-.2-.1-.3-.1-.5s0-.1,0-.1,0,.1,0,.1h-.1c0-.1-.1-.1-.1-.2a1.3,1.3,0,0,1,.3-1.2l.5-.3h1.3l1,.3a3,3,0,0,0,1.5.5c.4.1.7-.1,1-.1h2.1a3.5,3.5,0,0,0,1.1-.3,3.8,3.8,0,0,0,1.2-1c.2-.1.2-.3.3-.5l.3-.3v-.3h.1c0-.1-.1-.3,0-.4h.2c0-.1,0-.2.2-.3l.9-.5c.2-.1.3,0,.4.1l.2.3.4.5h.2l.2.2v.3l.3.4a2.5,2.5,0,0,0,.4.7l.3.5c.2.2.5.2.7.3h-.1c0-.1.2,0,.2,0v.2l.5-.2h0c0-.1,0-.1.1,0s.3-.1.3,0A3.5,3.5,0,0,0,117,16a1,1,0,0,0,.5-.4,3.3,3.3,0,0,0,1.1-1.5c.1-.2,0-.4.1-.5a.9.9,0,0,1,.8-.5h1.4l.5-.2c.4-.1.6-.2.7-.6a1.6,1.6,0,0,1,.4-.7h0v-.3h.4s0-.2.1-.2a1,1,0,0,1,1-.2l.4.2c.1.2.2.3.4.2h.4m-28.7.3h-.3s-.1-.1,0-.1h.2c.1-.1.4.1.4.2h-.3M20.2,69h-.1c0-.1,0-.2.1-.2V69h0m.5,2.6h-.1c0-.1,0-.2.1-.2s.1.2,0,.2M11.2,86.4h-.1a.3.3,0,0,1,.1-.2v.2h0m52.7-2h0v-.2h0m-3,1.1a.2.2,0,0,1,.4.1c0,.2,0,.3-.2.3s-.3-.1-.2-.4m-6.3-.8c.2,0,.4.2.3.3h-.2c-.2-.1-.2-.3-.1-.3m-.5-.6a.2.2,0,0,1,.3.1v.2c-.1.1-.2,0-.2-.1s-.1-.2,0-.2M51.8,84h0v.2c-.2,0-.2-.1,0-.2m-1,1.1h0c.1.1.1.2,0,.2s-.1-.1,0-.2m-.4-2c.1,0,.2,0,.2.1h-.2c-.1-.1-.1-.2,0-.1m-1.2,1.3h0v.2c-.1,0-.1-.1,0-.2h0m-.4-2c.2,0,.3,0,.2.2s-.1.2-.2.2a.2.2,0,0,1,0-.4m-.1,1.7h0s.1.1,0,.1h0m-2.4,1.3.6.3c.1.3.1.4-.3.4s-.3-.1-.3-.4v-.3m-.2-3.9h.1s0,.2-.1.1a.1.1,0,0,1-.1-.1h.1m-1.6,2.7h0v-.2h0m-.9-2.5h0c.1,0,0,.2-.1.2s0-.1.1-.2m-.7,1.1c0-.3,0-.3.1-.3s.5.1.6.4-.1.2-.2.1-.2.2-.2.3-.3-.1-.3-.5m-.8.4h0c.1.1.1.1.1.2a.1.1,0,0,1-.1-.1c-.1-.1,0-.1,0-.1m-1.3,2.5h-.2c0-.1,0-.2.2-.1h0m-.4-2.9c.1-.2.1-.1.3.1s.3.4.1.4-.4-.4-.4-.5m-7.9,1.5c-.1-.2-.2-.1,0-.2a.3.3,0,0,1,.5.1c0,.4-.4.5-.5.1m.5.7h.1c0,.2-.1.4-.2.3s0-.2.1-.3m.1.6v-.2c.2-.1.3,0,.2.1h-.1m.3-1.1h0c-.1-.1-.1-.1-.1-.2a.1.1,0,0,1,.1.1c.1.1,0,0,0,.1m.6.6h0v-.2c.1,0,.1.2,0,.2m.9.6c-.2,0-.2,0-.1-.1s.2-.1.2.1h-.1m-.1-.7c-.3.2-.2.2-.5,0H34c-.2-.1-.2-.3-.1-.3h1.2c0,.1-.1.2-.3.4m-.3-.9c.2.1.1.2,0,.2h-.3c-.3,0-.3-.2-.2-.3s.4,0,.5.1m-.3-.9c.1.1.2,0,.1.1s-.2.1-.2-.1h.1m1.1,1.7h-.1c0-.1,0-.1.1-.1h0m.4,1.3c-.1,0-.1-.1,0-.1H36a.2.2,0,0,1-.3.1m.2-.5h0a.1.1,0,0,1,.1.1h-.1m.3.4h0a.1.1,0,0,0,.1.1c0,.1-.1,0-.1-.1m.8-4h.1a.1.1,0,0,1-.1.1h0m.1,3c-.1,0-.1,0,0-.1s.2.1.1.2-.1,0-.1-.1m1-1.9h0a.1.1,0,0,1,0-.2c.1,0,.2.1,0,.2m1.1.5h0c-.1,0,0,0,0-.1m0-.4h0c.1,0,.1.1,0,.2v-.2m.3,1.9c-.1,0-.2.1-.1.3s.2.2.1.3l-.2-.3c-.1-.3-.1-.3,0-.4s.4-.1.4,0-.1.1-.2.1m.5-1.5h0c-.1,0,0-.1,0-.2h0m-.6-2.4c0-.1.1,0,.1.1a.2.2,0,0,1-.3-.1h.2m-.2,1.4.3-.4c.1-.1.1-.3.2-.2s0,.1.1.2.2.5.1.6H39l.2-.2m-.5-1.4c.2-.2.2-.1.1.1l-.2.2c-.2-.1-.1-.2.1-.3m-.3,3.5h.3c.3,0,.3.2,0,.3s-.4-.2-.3-.3m-.3-2.3h.1c0,.1,0,.2-.1.2s-.1-.1,0-.2h0m-.2-1H38a.1.1,0,0,1-.1.1c-.1,0-.1-.1-.1-.2h.1M37.8,85h0c-.1,0,0-.1,0-.1h0m-.2-.9c-.2-.1-.3-.2-.1-.2h.2a.2.2,0,0,1-.1.3m.1-.9c-.1.1,0,.2-.2.1s-.2-.1-.1-.2.3,0,.3.1m-.3-.5a.2.2,0,0,1,.2.2c0,.1-.1.2-.2,0s-.1-.1,0-.2m-.1,3h-.1c0-.1,0-.2.1-.2a.1.1,0,0,1,0,.2m-.5-4.6c.1,0,.4,0,.4.1s-.4.3-.5,0,0-.1.1-.1m-.3,3.2c-.2-.1-.2,0-.2-.2v-.2l.3.2c.2.2.2.2-.2.2m-.2-.9h0c-.1,0-.1-.1,0-.2m-.1,1.8h0c0,.1.1.2,0,.2h-.1c0-.1,0,0,.1,0m-.3-1.6H36c-.1.1-.2.2-.2,0h.1m-.2,1.9h0c-.1,0-.2-.1-.1-.2s.1,0,.1.1M34.4,82c.2-.2.2-.2.3-.1h.2c-.1-.2.2-.4.3-.4s.2.5,0,.6-.2,0-.2.1,0,.3.2.1.5-.1.5.1a.3.3,0,0,1-.3.3h-.3c-.1.2-.2.1-.3.1s-.3-.2-.1-.3.1-.1-.1-.2v-.2c-.3-.1-.3-.1-.1-.2m-.3-.5h0M34,82.6c.1-.1.2,0,.2.1v.2c-.1.1-.2,0-.2-.1s-.1-.2,0-.2m-.2.8c0,.1-.5.2-.7.1s-.3-.3-.1-.4h.3c.1,0,.5.2.5.3m-.9-.9h.2c0,.1,0,.2-.1.2s-.2-.1-.1-.2m0-.8q.1-.5.3,0c.1.1.1.2-.1.3s-.5.1-.4-.1l.2-.2m-.4,1.7h.3c.1.1.2.2,0,.4s-.4,0-.4-.1,0-.2.1-.3m-2.8,2.9c-.2.2-.5-.1-.3-.2s.1-.2.2-.1.2.2.1.3m-.3-2.5h0m1,2.4-.2-.2c-.2-.3-.3-.4-.2-.4h.3c.2,0,.3-.1.3.2s-.2.2-.2.3m.4-4.2h.1v.2c-.1,0-.1-.2-.1-.2h0m.2,3.6c-.1.1-.2.1-.2,0v-.2c.2,0,.2.1.2.2m.2-1.3c-.1.2-.2.2-.2.1a.4.4,0,0,1,0-.5c.2-.1.3.2.2.4m.7.3c-.2,0-.3-.1-.2-.2a.2.2,0,0,1,.4.1c.1.1,0,.2-.2.1m0-1.4c0-.1,0-.2.1-.1s.2.3,0,.4-.2,0-.1-.3m.1-.8c-.1,0-.1.1-.1-.1s.1-.2.2-.1v.2H32m-.1-.9c.2-.2.3-.2.3.1s-.4.4-.5.2,0-.2.2-.3m-.2,1,.3.3h-.2c-.2,0-.2-.1-.2-.3h.1m-.2.8c-.1-.1-.2-.4-.1-.4l.2.2c0,.2,0,.2-.1.2m-.1-1.1h-.2c0-.1.1-.1.2-.1h0m-.3-.6h.2c0,.1,0,.1-.2.1a.1.1,0,0,1-.1-.1h.1m-.3-.5c.1,0,.2.1.1.2s-.3,0-.3-.2h.2m-.3,2.8h0c-.2,0-.2-.1-.1-.2s.1,0,.1.1m0-1.5c-.1.1,0,.2-.1.1s-.2-.4-.1-.4.2.2.2.3m-.6-.9c.1-.2.2-.3.4-.1s.2.7-.3.7-.2-.1-.2-.2a.6.6,0,0,1,.1-.4m-.1,1.3c.1,0,0-.1,0-.1v.2a.1.1,0,0,1-.1-.1h.1m-.1,1.9a.5.5,0,0,1,.7,0l.3.2c.1,0,.1.1-.1.3s-.2.3-.5.3-.7-.5-.4-.8M29.5,83s.1.1,0,.1h0c.1,0,0,0,0,.1m-.1-.7h.1c.1,0,0,.1,0,.1a.1.1,0,0,1-.1-.1h0m-.2-.6c.1,0,.2.1.1.2h-.1c-.1-.1-.1-.3,0-.2m-.1.6h.1s0,.2-.1.2-.1-.2,0-.2m0,1h0m-.1.8c.1-.2.3-.1.3.1s-.2.5-.3.1-.1-.2,0-.2m-.1,1.1h0c0,.1-.2.2-.2,0h.2M25.5,84h0m.1-1h0a.1.1,0,0,1-.1.1c-.1,0-.1-.2.1-.2m2,2.7h-.1c0-.1.1-.2.1-.1s.1,0,0,.1m.5-1.6c-.1,0-.3-.2-.2-.3h0c.1,0,.2.3.2.4m.4,1.7h0m.1-1.2c-.1.1-.1.1-.2,0s-.1-.4.1-.3.2.3.1.3m-.2-1.5c-.1.2-.4.4-.6.3s-.4-.9-.2-.9h.3c0,.1.2,0,.3,0s.4.2.2.5M27.7,82c.1-.2.3-.1.5.1s.2.2.1.2h-.5c-.3-.1-.3-.1-.1-.3m-.3,1.8c.1,0,.1,0,.1.1s-.2.1-.3,0,.1-.1.2-.1m-.1,1h.1c-.1.1-.1,0-.1-.1h0m-.7-1h.3c0,.1,0,.2-.1.2s-.1,0-.2-.1-.1,0,0-.1m0,.5c.2.3.2,1,0,.9s-.3-.2-.1-.4.2-.3-.1-.4-.2-.4,0-.4.1.3.2.3m-.4-2.2h.1c0,.1,0,.2-.1.2v-.2h0m0,1.1c.1,0,.1,0,0,.1h-.1c0-.1.1,0,.1,0m0,1.9c.1.1,0,.1,0,.2s-.1.2,0,.3h.2c.1-.1.3-.2.4-.1s.1.3.2.3a.5.5,0,0,1,.2.4c-.1.2-.1.4-.3.4h-.6c-.4.2-.8-.4-.5-.8s.2-.6,0-.6h-.2c-.1,0-.1-.2,0-.2s.2.1.4.1h.2m-.3-.6v.2h-.3c-.1-.1,0-.3.1-.5s.3,0,.3.2M25.7,82h.1c0,.1-.1.1-.1,0h0m-.2.4h0M28,28a.1.1,0,0,1,.1.1H28c-.1,0-.2-.2,0-.2m-.5-3.4c.1-.1,0-.1.1-.1s0,.2-.1.2,0-.1,0-.1m-.8,18.2c.1-.1.2-.1.2.1a.2.2,0,0,1-.3,0,.1.1,0,0,1,.1-.1m-1.5-6.6c.1-.1.4,0,.5.2s0,.4-.4.3-.2-.1-.2-.3,0-.2.1-.2M24,44c0-.1,0-.2.2-.5s.4.1.4,0a1.6,1.6,0,0,0,0-.7c.1-.2.1-.4.3-.6h.2c.3.1.3.1.4.3s.6.7.2,1.1l-.6.3c0,.1.4.2.3.3s-.2.7-.4.7l-.8.2c-.1.2-.2.2-.5-.2s.3-.6.3-.8m1.5,6.9c-.1-.1-.1,0-.1-.1l-.2-.2c-.1-.1,0-.2,0-.3a.2.2,0,0,1,.4.1v.4c.2,0,.1.1-.1.1m.2,5.5c-.1.1,0,.1-.1.1a.2.2,0,0,1,0-.3c.1,0,.1.1.1.2m0-6.5h0c.1,0,.3.2.2.3s-.2-.1-.2-.2m-.1-.7c-.1.1,0,.1-.1-.1s-.3-.2-.2-.4.3,0,.4.3,0,.1-.1.2m-1.1-1.3h0s-.1-.1,0-.1.1,0,.1.1h-.1m.1,5.8h-.1c-.1-.1-.2-.3-.1-.4s.2.1.2.3m-.1-2.1h0c-.1,0-.2-.2-.2-.3s.2,0,.2.2m-.8-2.7h.1c.1.1.2.2.1.3h-.3c-.1-.2-.1-.2.1-.3m0,3.6h-.1a.1.1,0,0,1,.1-.1c.1,0,0,0,0,.1m-.5-4c.2-.1.2-.1.2.1s-.2.3-.3.1.1-.1.1-.2M23,52.2c.1-.1.2-.1.2.1s0,.3-.1.3-.1-.3-.1-.4m.5,4.9c.1.1.1.1,0,.3s-.2.3-.4,0-.1-.3.1-.7.3-.4.4-.3,0,.2-.1.3-.2.2,0,.4m.1,1.5c0,.1,0,.1-.1.1s-.1-.2,0-.3.1.1.1.2m-.4,1.3a.1.1,0,0,0-.1.1c-.1,0-.1-.3,0-.4s.2.1.1.3m-.5-4.3c0-.1-.2-.2-.2-.2s-.2-.1.1-.4.2-.2.2-.2a2,2,0,0,1,0,1.1,1,1,0,0,1-.1-.3M22,59.3h.1c0,.2-.2.1-.2,0H22m0,.9c.3-.3.3-.4.3,0s.1.3.3.3.2.1.2.2,0,.3-.1.2l-.6-.2c-.3-.1-.4-.1-.4-.2s.2-.2.3-.3m1.2,4.5c0,.1.1,0,0,.1s-.4.1-.4,0h.4m0-1.3c.2-.1.2-.1.1,0h-.2c0-.1,0-.1.1-.1m-.3,2.1c.2.1.2.2,0,.2l-.3-.2c0-.1.1-.2.2-.1h.1m-.6-.9c-.1-.1-.2-.1-.1-.2s-.1-.2-.2-.3a.4.4,0,0,1-.1-.3h-.3a.6.6,0,0,1,0-.6h.3c.1,0,.2.1.2.3s0,.6.3.5.3-.1.4,0a.4.4,0,0,1-.5.7m0,.5h-.1c.1-.1.1,0,.2.1h-.1m-.6-.2h.1c.2.2,0,.4-.1.3s-.1-.3,0-.3m-.1-.7h-.1c.1-.1.2,0,.2.1h-.1m.3,2.8h0m.6-3.4c-.1,0-.1,0-.1-.1s.2-.1.2.1-.1,0-.1,0m-.9-2.7c.1-.1.1-.1.1,0s0,.2-.1.2-.1-.1,0-.2m-.1,1.4c.1-.1.1-.1.1.1a.3.3,0,0,1-.1.2.2.2,0,0,1,0-.3m-.4-.6c.1-.1.2-.1.2.1s-.1.2-.2.2-.1-.2,0-.3m-.2,1.8c-.1,0-.1,0,0-.1l.2-.2h.1c-.1,0,0,.1,0,.2s-.2,0-.3,0M21,67c-.2-.2-.2-.2-.1-.5s.1-.2.1-.3.4-.3.5.1.2.8,0,.9-.3-.1-.3,0L21,67m.2.6c.2-.2.4-.3.6-.2a.8.8,0,0,1,.4.7.3.3,0,0,1-.3.3c-.3.1-.3.2-.6.1a.6.6,0,0,1-.1-.9m.7,1.9c.2,0,.3.1.2.2l-.5-.3h.3m-.2-.7c-.1-.1-.1-.1,0-.1a.2.2,0,0,1,.1.3.3.3,0,0,1-.1-.2M21.2,70h.1c0,.1,0,.1-.1.1V70h.1m-.7,3h.2c0,.1,0,.2-.1.2s-.1-.2-.1-.2m-.1.9a.1.1,0,0,1,.1-.1c.1.1-.2.4-.3.3s0-.2.2-.2m-.3,1.6h0c-.1,0-.2,0-.1-.1h.1m-.2.8h0v-.2h0m0,1.3h-.1c-.2,0-.3-.2,0-.2s.1.1.1.2M19.7,75c.1-.2,0-.3.1-.3l.3.3h-.3c-.1.1-.1.3-.2.3s.1-.3.1-.4m-.2,1.5c-.1-.1-.1-.3,0-.3h.2c.1.1,0,.2-.1.3h-.1m-.4,8.2h.2c-.1.2-.2.2-.2,0m0,.8h0s-.2,0-.1-.1h.1m.1.6c.1.2,0,.2-.2.1s-.3-.3-.1-.4.2.1.3.3m-.7-1.4c.1-.1.1-.1.2.1s.1.2,0,.2h-.2c-.1,0-.1-.3,0-.3m-.1.6c.2.1.2.1,0,.2h-.1a.1.1,0,0,1,.1-.1M15,83.2h0c-.1-.1-.1,0,0,0m-.5.7v.2a.1.1,0,0,1-.1.1c-.1,0-.1-.2,0-.3m-.3-.3h0a.1.1,0,0,1,.1.1c-.2.2-.3.1-.1-.1m-2.5,1.8c-.2,0-.2,0-.2-.2s0-.4.1-.4l.3.5c0,.1.1,0,.2,0s.2.1.2.2-.2.4-.4.2-.1-.3-.2-.3m.3.9c-.2-.2-.2-.4-.1-.4h.3c.1.2.1.2-.1.4s0,.1-.1-.1m.7,1c-.3.1-.3.1-.4-.1l-.3-.3c0-.3.1-.2.4-.3s.7,0,.7.2-.1.2,0,.3,0,.1-.4.2m.4-.9h0c.1,0,0,.1,0,.2h0m1.5-.6a.4.4,0,0,0-.3.6q.1.3,0,.3c-.1,0-.3-.4-.2-.6s-.3-.4-.4-.4-.2.2,0,.3h.2c0,.1-.3.1-.5,0s-.6-.3-.6,0-.3.1-.3-.1.1-.5.5-.5.6.1.4-.1-.2,0,0-.2,0-.1-.1-.2-.2-.2-.3,0-.1.1-.3-.1v-.2h.2c.2,0,.2-.1.2-.2h.2c0,.1.7.2.7.1h.6a.2.2,0,0,0,.2.2c.3,0,.5-.1.5.2a.1.1,0,0,1,0,.2h.1c0,.2-.5.5-.7.5m.7-1.3c-.1.1-.4-.1-.4-.2h0l.4.3m.1-.2c0-.1-.1-.1,0-.1a.1.1,0,0,1,.2,0c0,.1-.1.2-.2.1m.4,1.1h-.2c0-.2.4-.1.4,0s0,.1-.2.1m0-1.7a.5.5,0,0,0-.4.2c-.2.1-.5,0-.4-.1l.3-.3c.1-.2,0-.3-.1-.5s-.1-.4.1-.5.2-.1.1.1,0,0,.1.1l.3.2c0,.2.1.2.2.3s.2.2.2.3-.2.3-.4.2m1.4,3c-.1.1-.2.2-.2.1s-.1-.3,0-.4l.3.2c.1.1.1,0-.1.1m.4.4h0c.1,0,.1.1,0,.2m.2-1a.2.2,0,0,1,0,.3h.1a.2.2,0,0,1,.1.4c-.1.1-.5-.3-.4-.5s.1-.2-.2-.2H16.3c-.2-.2-.3-.4-.1-.5s.1-.2.1-.5.1-.4,0-.5a.2.2,0,0,1,.1-.4l.3-.2c.1-.1.2-.1.1.1a.1.1,0,0,0,0,.2H17c.3.2.5.1.5,0s0-.1.2-.1.4.1.3.5-.2.5,0,.5.1.4-.1.5-.2.2-.1.2m.6.2h0c.1,0,.3.1.2.2s-.2,0-.2-.1m.5,1h0v0h-.1m.3-.5c-.2,0-.3.1-.3.2s-.3.2-.3.1.1-.2.1-.2.6-.3.7-.1-.1.1-.2,0m0-2.7a.5.5,0,0,0-.1.3c.1,0,0,0-.1-.1a.3.3,0,0,1-.1-.2v-.2h.3c.2,0,.1.1,0,.2m1.4,2.1h0c.1,0,0,.1,0,.2h0m.9.9c-.1.2-.2.2-.2,0s0-.2.1-.2.1.1.1.2m.3-.1h0m1-.1h-.1c0-.1,0-.1.1-.1h0m1.4-2.1s-.1-.1.1-.1.1-.1.1,0-.1.2-.2.1m.1.8c0-.2-.1-.2,0-.2l.4.2c0,.1-.3.1-.4,0m.5-.2c-.1,0,0,.1,0,0a.1.1,0,0,1-.1-.1c.2-.1.2,0,.1.1m.4.4c-.1.1,0,.1-.1,0s-.1-.2,0-.2.1,0,.1.2m-.1-2.1h.2c0,.1,0,.2-.1.2s-.2-.3-.1-.3m0,.9c.1.3.1.4-.2.4a.5.5,0,0,1,0-.5c.1-.2.1-.1.2.1m-.4-2.7h0s.1.1,0,.1h0m-.8-.4H24c.1.1.2.2.1.3h-.2c-.1-.1-.1-.1,0-.2m.1.9c.1-.4.2-.5.4-.4l.4.2c.1,0,.1.3-.1.3s0,.3.1.5.1.2.1.4,0,.2,0,.3-.5.3-.6.1-.1-.2-.3-.2h-.3c-.1-.2.1-.7.3-1.1m0,1.9c0,.1,0,.1-.1.1s-.2,0-.1-.1H24m-.6.2c.1-.1,0-.2-.1,0s0,.4-.2.3-.1-.2,0-.2h.3m-.2-.4c0,.2.1.2,0,.1V84c.1,0,0,.1,0,.1m-.2-.9V83h.1v.2c0,.1.1.3.1.4s-.1.2-.2.2-.2-.1-.1-.2v-.2H23m-.2-1.8h0v.2c-.1,0-.1-.1-.1-.2s0,0,.1,0m-.3.5v-.2c.1-.1.1-.1.2.2s0,.3,0,.4-.2.2-.3,0-.2-.4,0-.4m-.2,1.7h.2c.2.1.3.1.3.3s-.1.1-.3.1-.4-.2-.2-.3m0,1.4h0c-.1,0-.2-.1-.1-.2s.1,0,.1.1m.2-2.3h-.2c-.2,0-.2-.1,0-.2s.2,0,.2.1m-.3-1.1h0c-.1,0-.1,0-.1-.1h.1m-.1.7h.1a.1.1,0,0,1-.1.1h0m-.3,1.6h0c.1.2,0,.3-.1.1h.1m-.2,1c-.2,0-.2.2,0,.4s.2.2.1.3,0,.4.3.3.4-.2.5,0,.2.2.2-.1,0-.3.1-.3a.3.3,0,0,1,.2.5c-.1.1-.1,0,0,.1s0,0,.2,0v-.2h.3l-.2-.4c-.3-.1-.4-.3-.3-.4l.3.3a.7.7,0,0,0,.5.4c.3.2.3.4,0,.7l-.4.2c-.1-.1-.1,0-.2.1s-.3.1-.4-.1-.3-.3-.5-.2H21.2c-.3,0-.4.1-.3-.1s.1-.2-.1-.5-.3-.3-.1-.4.3-.2.2-.3a.5.5,0,0,0-.7-.1c-.2.1-.1.2-.1.5s-.1.3-.3.2v-.6h-.2c-.2-.1-.4-.5-.3-.6h0c.1-.2.5-.3.9-.2s.5.1.4.3.2.6.4.3.2,0,.3.1h.2c.2,0,.2,0,0,.1m-.2-.8h0m.1-1.8h.1c.1.1,0,.2-.1.1s-.1,0,0-.1m-1.1,0h.2c.1.2.4.3.5.2s.2.2.4.5.1.3-.2.5h-.6c-.2.2-.3.2-.5,0h-.4c-.2.1-.6-.1-.6-.2s.1,0,0,0h-.3s-.1-.2,0-.3.3-.2.3-.3.1-.2.3-.3.3-.2.5.1.4.3.5.2-.1-.1-.2-.2a.4.4,0,0,1-.1-.3c-.1-.2.1,0,.2,0m-.9-1.2v-.2c.4,0,.7.5.4.7s-.6-.1-.5-.5m.3.9c0,.2-.1.2-.1.1v-.2c.1-.1.3,0,.2.1m.5-2.2a.3.3,0,0,1-.1.2c-.1,0-.2.2-.3.4s-.2.3-.5.2h-.5l.2-.2c.1,0,.3-.2.2-.3h-.1a.2.2,0,0,1-.2-.2h-.2c-.3,0-.4-.1-.4-.4s.1-.1.2,0,.3.1.6-.1.3-.3,1.3.2a.4.4,0,0,0-.2.3m.1-1.1c.1.2.2.1,0,.2l-.2.2c-.1.1-.2,0-.2-.1s-.2-.4,0-.4.2.1.2,0,.1-.1.2.1m0-3.3a.3.3,0,0,1,.1-.2c.3-.2.5-.1.2.2h-.3m.7,1.1h-.3c-.2,0-.2-.1,0-.2s.4-.1.4.2,0,.1-.1.1m0-.7v-.3l.2-.2c.2.1.2.2.2.3v.2c.1.2-.2.2-.4,0m.5-.4c0,.1.1.1,0,.1h0M21.5,74h0m0,.3c.1.1,0,.1,0,.2s0,.4-.3.4-.4-.3-.3-.6h-.2c-.1,0-.1-.2.1-.4s.3-.2.5-.1a.3.3,0,0,1,0,.4c-.1.1-.3,0-.2.1s.1,0,.2,0,.1,0,.2.1m.2-2.5c-.1,0-.2.1-.3,0h-.2c-.1,0-.1-.1,0-.2a1,1,0,0,1-.1-.4c.1-.5.3-.5.6-.5s.4.1.2.3v.8h-.3m.6-1.7c-.2.2-.2.2-.4-.1s-.2-.4,0-.3l.3.2c.3,0,.2,0,.1.2m.2-2.7a.4.4,0,0,0-.2-.3h0l.5.5c-.1.2-.3.1-.3-.1m.1-1.3c-.2.1-.2.1-.2-.1s0-.1-.2-.1-.1-.1-.1-.2v-.3c.1,0,.5.4.6.6h-.1m.6.9H23c-.2,0-.3.1-.3-.1a.1.1,0,0,1,0-.2h.5c0,.1,0,.2.1.2s.3,0,.3.2-.3.5-.4,0m.2-4.3h-.7c-.2.1-.2,0-.2-.3s-.1-.3-.1-.4v-.2c0-.1.1-.2.2-.1s.2.2.1,0,.1-.5.3-.4a1.1,1.1,0,0,1,.2.9c0,.2.2.3.4.3h-.2m.4-.6c0,.2.1.2,0,0s-.2-.2-.1-.3.1.1.1.3m.8-2.5q-.5,0-.3.3c.1.1.2.2.1.2a.3.3,0,0,1-.1-.2c-.1-.2-.3-.2-.4-.3s-.2-.3-.1-.3.4-.1.7.1.3.3.1.2m-.5-1.1a.1.1,0,0,1,.1-.1.2.2,0,0,1,.2.2.2.2,0,0,1-.3-.1m.3.3h.1V59c-.1,0-.1-.2-.1-.2m.4-1.6c-.1.1-.1.2-.1.1h-.3q0-.2.3,0h.1m0-1.4h.1c.1.1,0,.1-.1,0m.1-.9c-.1.4-.2.5-.6.5s-.5.3-.3.5,0,.1-.1.1-.2,0-.2-.1a.1.1,0,0,0-.1-.1c-.3,0-.4-.1-.4-.8s-.1-.6-.1-.7a1.1,1.1,0,0,1,.2-.6l.3-.2c.2-.1.2,0,.3.1s.2.4.3.4l.3.2.5.2c.2.2,0,.3-.1.5m-.1-5.7s-.1,0,0-.1a.1.1,0,0,1,.1.1h-.1c-.1,0,0,0,0-.1m.1-2.6c-.2,0-.4,0-.4-.1a.3.3,0,0,1-.1-.2c.1-.3.5-.2.6.1s.1.1-.1.2m.4,13.2c0,.1,0,.1-.1.1s-.2-.4-.1-.4.2.1.2.3m.3-1.8c-.2.1-.3-.1-.1-.2h.1a.1.1,0,0,1,0,.3m.4-2.8c.1,0,.1-.1.2.1s-.1.5-.2.5-.4-.6-.2-.6H26m.1-4.2c-.1.1-.1.1-.2,0s0-.2.1-.2.3,0,.1.2m.3-5c-.1-.1-.3,0-.4.1s-.4.1-.4-.5a.9.9,0,0,1,.3-.8c.3-.3.5-.6.7-.5s.2.3,0,.8-.3.6-.1.7,0,.2-.1.2m.1,5.4h0c.1,0,.1,0,.1.1h-.1m.1.6c-.1-.1-.1-.1.1-.2h.2c0,.2-.1.3-.3.2m.2-1.3c-.1,0-.1,0-.1-.1a.1.1,0,0,1,.1-.1h0m0-1.3c0,.1.1.1,0,0v-.2c.2-.1.2,0,.1.2m.2-1.6c-.1.3-.2.3-.1.1a1,1,0,0,0-.1-.3c.2-.1.2,0,.2.2m.2-1.5h0m.1,3c-.1,0-.1-.1,0-.1s.2,0,.2.1h-.2m.3-10.5c-.1.2-.2.3-.2.1s-.1-.2,0-.3.2,0,.2.2m-.1-1.7c0,.2-.1.1-.2-.1s-.2-.2-.3-.3a.2.2,0,0,1,.1-.4h.5c.4.3.3.4.1.6l-.2.2m.4,2.3c-.1,0-.1.1,0,0h0m.2,3.9c-.1-.2-.1-.1,0-.2s.1-.2.2-.2.2.3.2.5-.3.1-.4-.1m.4-11.4c-.2-.1-.3-.2-.1-.3s.4,0,.4.2-.1.2-.3.1m.2-1.2c0,.1.1.2,0,.2h-.2c0-.1.2-.2.2-.2s.1,0,0,.1m.5-1.6c-.2-.1-.2-.1-.1-.2h.2a.2.2,0,0,1-.1.3m1.1,10c0,.2-.1.2-.1-.1s0-.2.1-.2,0,.2,0,.3m-.1-11h0v0h0m-.4,2.4h0a.1.1,0,0,1,.1.1h-.1m.1,7.5s0,.1-.1,0h.1c.1.1.1.1,0,.1m.2,2.3q-.2-.3,0-.3c.1-.1.4.1.4.3s-.2.3-.4,0m.6-8.7c0,.3-.1.4-.2.3s-.2-.4,0-.5.2,0,.2.2m4.4,11.8c0,.1.1.1-.1.1s-.2-.2-.1-.3.3,0,.2.2m6-.8h0c0-.1,0-.2.1-.2v.2c0,.1,0,0-.1,0m1.3.5h0v-.2c.1,0,.1.2.1.2s0,.1-.1.1m45-25.2c-.1.1-.2.2-.3,0a.2.2,0,0,1,.1-.4.1.1,0,0,1,.1.1c.1,0,.2-.1.2,0s-.1.2-.1.3m.6,1.8h0m3.3.4h0a.1.1,0,0,1,.1-.1h-.1m1.6-.1c-.2-.1-.4,0-.4-.1l.7-.3c.3.1,0,.4-.3.4m2.4,2.2h0m.2-1.4-.2.2v-.2h.2c.1,0,0-.1,0-.1h0m1.4-1.5c-.1,0-.1,0-.1-.1s.1-.2.1-.1,0,.1,0,.2m.3-6.8h-.1c-.1,0-.1-.1,0-.1h.1m.5-.7h-.3c0-.1,0-.2.2-.1a.1.1,0,0,1,.1.1m.7-.6h-.1c.1-.1.1,0,.1.1m.2-1.2h-.5c-.1-.1-.3-.2-.2-.3h.2c.4-.1.9,0,.9.3s-.2.2-.4.2m2.3,4.7c-.1.1-.1.1-.2,0s.1-.3.3-.2,0,.1-.1.2m.2-1.7c0-.1,0-.2.1-.2s.2-.1.2,0V13h-.2m.4,1.9h-.2c-.1,0-.1-.2,0-.2s.2,0,.3.1,0,.2-.1.2m.2-2h0m.5-2.7c-.1.1-.1.2-.2.1s.1-.3.2-.2,0,0,0,.1m.7,4.5h-.1s.1-.2.2-.1h-.1m.3.1c0-.1-.1,0-.1,0s.1-.1.1,0h0m1.4-2.2h-.1c-.1,0-.1.1-.2,0s0-.2-.1-.2H104c.1-.1.3,0,.5.1s.1.1.1.1m.6-.5h0m.4,3.5h0m1.9-.2h-.2l.2-.2a.1.1,0,0,1,0,.2m0,.9h0m.5-.4h-.1c0-.1.1-.2.2-.1H108m.4.3h0m.5-4.7h-.1c0-.1.1-.2.2-.1h-.1m.4-2.6h0m-.1,5.1s-.1,0,0-.1h0m2.1-5.5c0,.2,0,.1-.1.1H111c0-.2.2-.1.3,0m-1.5,1.1h.1c.2,0,.2.1.1.2s-.2.3-.3.2V9.6m.2,3.2h0m.1-.4h-.3c0-.1.2-.3.3-.2s.1.1,0,.1m.1-3.4h-.6l.3-.2c.1-.1.2-.2.3-.1s0,.3,0,.4m.2-1c-.2-.2-.2-.2.1-.3h.4c.3.1.3.2.3.3s.1.2,0,.3a.7.7,0,0,1-.6-.1l-.2-.2m.4,2.2h-.2l-.2-.3h.1c.1-.1,0,0-.1,0s0-.2.1-.2V9.4a.6.6,0,0,1,.1-.4c.1,0,.1.1,0,.1a.5.5,0,0,1,.1-.3h.3c.1.1,0,.3.2.4s.4,0,.3.2h0v.2a.4.4,0,0,1-.1.3.5.5,0,0,1-.5,0m.7.2h0c.1.1,0,.1,0,.2h0m.1-.6h0m.6.7c0,.1.1.1,0,.1s-.1-.1,0-.1h0c.1,0,0-.1,0-.1m1,3.2c-.1.1,0,.1,0,.1h0m0-2.4h0m.6,1.8h-.2c-.1-.1,0-.2.1-.2h.1m2.7.9h-.1c0-.1,0-.2.1-.1s0,0,0,.1m.3.1c-.2-.2-.2-.4.1-.5h.5a.4.4,0,0,1,.1.3c.1.4-.4.6-.7.3M118,12h0m.4.5c-.1,0,0,.1,0,0h0m3.8-.8c-.2.1-.2.1-.4,0s-.1-.2-.1-.4.6,0,.6.2,0,.2-.1.2"/><path class="aaee4464-4163-42ab-a2c7-3b6fb60e1a11" d="M7.4,87.4v-.2H7.3a.1.1,0,0,0,.1.1"/><path class="aaee4464-4163-42ab-a2c7-3b6fb60e1a11" d="M19.9,82.9h-.2c-.1,0-.1.1,0,.1s.1.1.1,0,.1-.2.1-.2"/><path class="aaee4464-4163-42ab-a2c7-3b6fb60e1a11" d="M27,52.6h0v-.2h0"/><path class="aaee4464-4163-42ab-a2c7-3b6fb60e1a11" d="M7.4,89.8c.1-.1.1-.1,0-.3H6.7c0,.1-.2.1-.3.1H6c-.1,0-.1.2,0,.3s0,.3-.1.3,0,.3.2.3.6.5.3.8-.8,0-.7-.3a.6.6,0,0,0-.2-.7c-.1-.1-.2-.1-.3.1s-.3.1-.2-.2.1-.3,0-.3H4.9c0-.1-.1-.2-.3-.1s-.3,0-.2-.2.1-.2-.1-.3l-.3.3A.3.3,0,0,1,4,90H3.5l-.6.7a.1.1,0,0,1,.1-.1h.2c0,.1.1.1.2.1s.1.1,0,.3a.3.3,0,0,0,0,.5h.1c0,.1.3.1.3.1a1.8,1.8,0,0,0,.1-1c-.1,0-.1-.1,0-.2s.1-.2.2-.2h.4c0-.1,0-.2.1-.2s.1.1.1.4,0,.3.2.6.2,0,.2.2H4.9c-.2.1-.3.2-.3.4s.1.3.4.2a.6.6,0,0,1,.6,0h.3l.3-.2h.2l.9-.7H7c-.2-.1-.2-.1-.3-.3s-.1-.4.1-.4.6-.3.5-.4a.1.1,0,0,1,.1-.1m-1.2.3h0s.1.1,0,.1m-.8,1.1c-.2.3-.2.2-.2-.1l.2-.2q.1,0,0,.3"/><path class="aaee4464-4163-42ab-a2c7-3b6fb60e1a11" d="M4.9,89.1c-.3.2-.2.2,0,.3h.9c0-.2-.2-.3-.3-.2s-.2.1-.3-.1-.1-.2,0-.3h.6a.1.1,0,0,0-.1-.1v-.2l-.6.5c0,.1,0,.2-.1.2"/><path class="edcf8cbb-f127-45f5-9822-1267736aaa32" d="M54.9,21.5c.5-1.5,1.1-2.8-.5-3.2s-3,.4-5.3,2A3.8,3.8,0,0,0,47,23h-.1c0,.1-.1.2-.1.3a5.9,5.9,0,0,0-.7,2h0a6.1,6.1,0,0,0,.3,1.1c.3,1,.8,1,1.8,1.3s1.3-.4,2.4-.2.6.3.7.8A2.1,2.1,0,0,1,51,30c-.5.8-.5.9-1.3,1.3a4.5,4.5,0,0,1-2.5.9c-1,.1-1.6-1.2-2-.3s-1.1,3.1.6,3.5,3.4-.3,6.1-2,1.6-1.5,2.3-3.3.9-2,.4-3.9a1.6,1.6,0,0,0-.5-.8c0,.1,0,.1-.1.1a.1.1,0,0,0-.1-.1h0l-1.1-.4c-1.2-.3-1.3.4-2.5.2s-.4-.3-.5-.7-.2-.6.1-1.1.4-.8,1.1-1.2,1.1-.8,2.4-.7,1.3.9,1.5.1m-8.3,5.2c0,.1,0,.1-.1.1s-.1-.1,0-.2h.1c.1.1.1.1,0,.1m.4.5h0m0-.8h0m.2.1h0m.2-.7h-.1c0-.1.1-.1.2-.1s0,.1-.1.1m.4-.6c-.1-.2-.1-.3,0-.4s.1-.1.2,0,.1.1,0,.2v.2c-.1.2-.2.2-.2,0m.6,2.3h0m-.3-1.7a.1.1,0,0,1,.1-.1h0c0,.1,0,.1-.1.1m-.2-2.9c0,.1-.1,0-.1,0h.1m-.1-1.2h0m.5.7h0c.1,0,.1.1,0,.1m.5.8h0m-.1-2.1h-.1a.1.1,0,0,1,.1-.1c.1.1.1.1,0,.1m.4,1.1h-.2c.1-.1.1-.1.2,0h0M45,32.7h.1c0-.1.1-.1.1,0H45m.6-.1h-.1c0-.1,0-.1.1-.1h0m.8,1.1h.1a.1.1,0,0,1-.1.1m.3,1.6h0m.4-1.3c-.1.1-.2.1-.2,0s0-.2.1-.1a.1.1,0,0,1,.1.1m0-.4h0c.1,0,.1.1,0,.1m1.2-.4h-.1c.1-.1.1,0,.1.1m.4,1.6h.1s0,.1-.1,0m.3-2.2h0m.9.5h0m.8-.6h-.1a.1.1,0,0,1,.1.1h0m0-1.6h-.1a.1.1,0,0,1,.1-.1m.1,1.6h0m.7,1h.1a.1.1,0,0,1-.1.1m-.3-2.8h-.1c-.1,0-.1-.1-.1-.2h.1c.1,0,.2.2.2.3h-.1m2.9-4.9c0-.2.1-.2.1-.1s.1.2,0,.2h-.1m-.2.1H54c.1,0,.1.1,0,.1s-.1,0-.1-.1m-.1,1.3c.2-.1.3,0,.3.1s.1.1,0,.1h-.3v-.2c-.1-.1,0-.1,0-.1m-.1,2.5c0,.1-.1.1-.1,0s0-.1,0-.1h.1m-.3-1.3a.1.1,0,0,1,.1.1.1.1,0,0,1-.2,0c-.1-.1-.1-.1.1-.1M52.7,31h0c-.1,0-.1,0-.1-.1h.1M52,29.7h0m-.2-1.1h0m.3,3.6a.4.4,0,0,1-.1.3c0,.1-.1.1-.2,0v-.4c.1-.1.2-.1.3.1m-.6-2.9h0M49.7,20h0c.1,0,.1,0,.1.1h-.1m.7,1.8h-.2c-.1-.1-.1-.1,0-.2h.2v.2"/><path class="edcf8cbb-f127-45f5-9822-1267736aaa32" d="M76.9,21.3c-.6-1.2-.8,1.1-2,1.7a8.8,8.8,0,0,1-3.2,1.2c-.1,0-.3-.1-.3-.2.4-4.8.5-4.8,1.2-9.6.1-1.1,1.6-1.9.5-2.1s-2.4,0-3.9,1.3.4.9.3,1.8a98.8,98.8,0,0,1-1.1,10.8c-.1,1-1.8,2.1-.7,2,4.4-.4,4.4-.9,8.3-2.8h.1c1.9-1,1.8-2.2.8-4m-6.4,6h-.2V27h0q.2,0,.3.3h-.1m.2-1.4h0m.5.4h0"/><path class="edcf8cbb-f127-45f5-9822-1267736aaa32" d="M44.5,21.4c-2-.1-2.1.2-3.7,1.3s.2.7.1,1.4a12.4,12.4,0,0,0-.4,1.6h0c.1.1,0,.2-.1.1-.4,1.5-.7,2-1.4,4.3s-.2,4.2-1,2.9c-1.9-3.3-1.1-3.7-1.8-7.4-.2-.7.8-1.4.1-1.4s-2.2.1-3.8,1.3.5.5.8,1.1,1,2.5,1.3,3.3h0c.1,0,.2,0,.2.1a.8.8,0,0,1,.2.4c0,.2,0,.3-.1.3h0a51.3,51.3,0,0,1,2,6V37h0a.9.9,0,0,1-.1.5h0c-.3.4-.6.7-.2.8H37a2.8,2.8,0,0,0,1.8-.4h.1c0-.2.1-.2.1-.1l.6-.4h-.1c-.1-.1-.2-.3-.1-.3a.2.2,0,0,1,.3-.1.1.1,0,0,1,.1.1h0l.4-.3c.5-.3-.4-.6-.2-1.2s.5-1.9.6-2.6h.1a54.3,54.3,0,0,1,3.1-10c.4-1,1.5-1.5.7-1.6M32.9,26.1h0m.7,1.3h0m.2-1.1v-.2c0-.1,0-.1.1-.1s0,.4-.1.3m.2.3h.1a.2.2,0,0,1,0,.3c0,.1,0,.1-.1,0v-.3m.3,1.8h-.1c0-.1.1-.2.1-.1s.1.1,0,.1m4.2,6.7h-.1c0-.1,0-.1.1-.1m-.9-1.7c0,.1-.1.1-.1,0h.1m-.2-.8h-.1a.1.1,0,0,1,.1-.1m-1.2-6.3h0m.6,4.9c0,.1,0,.1-.1.1h.1M36.3,28a.1.1,0,0,1,.1.1h-.1m.8,6.1a.1.1,0,0,1,.1.1h-.1c-.1,0-.1-.2,0-.2m-.2.4c0,.1-.1.1-.2,0s.1-.3.2-.3a.2.2,0,0,1,0,.3m.2,1.4a.1.1,0,0,1-.1-.1h.1m0,1.4h0c-.1,0,0-.1,0,0m-.2-1.1c0-.1.1-.1.1,0h-.1m-.5-5h0m-.3-1.5c-.1.1-.1.1-.1,0h0c.1-.1.2,0,.1.1m-.3-1.3h0m-1.1-3.9c.1-.1.2-.1.2,0h-.2m.6,7.2h0m-.1-1.8h0m-.5-3.8c-.1,0-.1,0-.1-.1h.1m1.1,6.6c-.1,0-.1-.1,0-.1h0m-.7-5.5h0m-.1-.9h0m1,7.1h.1a.1.1,0,0,1-.1.1m-.4-3.5h0m-.4-3.3h0m1.1,6.9h0m.2.2h-.1a.1.1,0,0,1,.1-.1h0m.4,2.7h0m.3,1.6h-.3c-.1-.1-.1-.1,0-.2s.1-.3.2-.3h0c.1,0,.1.1.1.2a.1.1,0,0,0,.1.1c0,.1,0,.1-.1.1m.2-.9h-.2c-.1-.1,0-.2.1-.2s.2.1.1.2m0-.8h0m-.1-1.2h.1a.1.1,0,0,1-.1.1c-.1-.1,0-.1,0-.1m.1,1.1a.1.1,0,0,1,.1-.1h0c0,.1,0,.1-.1.1m.4.8a.1.1,0,0,0,.1.1h-.1m.3,1c-.1.1-.1.1-.1,0s0-.1.1-.1.1.1,0,.1m-.4-3.8V34c.1-.1.1-.1.1,0s0,.2-.1.2m.4-.4h0c.1.1-.1.3-.1.2s0-.3.1-.2m0,1.2c0-.1,0-.1.1-.1h0a.1.1,0,0,1-.1.1m.6,2.9h0m0-.6h0m-.2-.4h0c-.1,0-.1-.1-.1-.2s.1-.2.3-.2,0,.1.1.2a.3.3,0,0,1-.3.3m.2-2.1v-.2a.1.1,0,0,1,.1.1c.1.1-.1.2-.2.1m.6.5h0m.7,1.2h-.2a1,1,0,0,0-.1-.3h.2c.1.1.2.1.1.2m-.3-5.9c-.1,0-.1-.1-.1-.2s0-.3.2-.3.1,0,.1.2-.1.3-.2.3m.7,2.1h0c.1,0,0,.1,0,0M39.9,28H40s-.1.1-.1,0m.5,1.8h0c0-.1,0-.1.1,0h-.1m.3-2.5h-.1c0-.1.1-.1.1,0h0m.2-.7h0m.6,2.6h0m1-3.3c0,.1-.1.1-.1,0s-.1,0,0-.1.2,0,.1.1m-.2-1.6c-.1,0,0-.1,0,0h0"/><path class="edcf8cbb-f127-45f5-9822-1267736aaa32" d="M65.9,18.3c.5-1.5.9-2.9-.6-3.2s-3,.4-5.4,1.9-1.6,1.4-2.4,3.2-.7,1.7-.2,3.2.7,1,1.7,1.3,1.3-.4,2.5-.2.4.3.5.8a1.9,1.9,0,0,1,0,1.3h0V27l-.2-.2h0c-.4.8-.5.8-1.3,1.3a4.2,4.2,0,0,1-2.4.9c-1.1.2-1.7-1.3-2.1-.4s-1.1,3.2.7,3.6,3.1-.1,4.9-1.4h0l1-.7h.2c1.5-1,1.5-1.3,2.2-3.1s.8-2,.3-3.9-.7-.9-1.7-1.2-1.3.3-2.4,0-.5-.2-.6-.6-.1-.6.2-1.1A2,2,0,0,1,61.9,19c1.1-.6,1.1-1,2.3-.9s1.4,1,1.7.2M57.8,21h0c.1.1.1.1,0,.1m1,1.4h0m-.1-1.2h-.2c0-.1.1-.1.2-.1s.1.1,0,.2m.3-.4a.1.1,0,0,1,0-.2c.1-.1.2.1.2.2v0m.3,1.3h0a.1.1,0,0,1,.1.1h-.1m1.3,2.2h.1a.1.1,0,0,1-.1.1m-3.9,4.4h.1v.2c-.1,0-.1-.1-.1-.2m.3,2h0m.3.9h-.2c-.1,0,0-.1.1-.2h0c.1,0,.2.1.1.2m.3.1h-.1a.1.1,0,0,1,.1-.1c0,.1.1.1,0,.2m1.1.5h0m.8-2.4h0m1,1.7c-.1,0-.1,0,0-.1h0c.1,0,.1.1,0,0m4.4-7.8h0m-2.5,4h0c-.1,0-.1,0-.1-.1h.1m.6-3h0m-.7,1c.2,0,.3.1.2.2s-.1.1-.2,0-.1-.2,0-.2m-.3-.9h0Z"/></g></g></g></svg>